<svg xmlns="http://www.w3.org/2000/svg" viewBox="0 0 1200 720"><rect width="1200" height="720" fill="#080c11"/><circle cx="980" cy="100" r="300" fill="#367df9" opacity=".12"/><rect x="92" y="106" width="780" height="480" rx="22" fill="#f2efe8"/><rect x="92" y="106" width="780" height="64" rx="22" fill="#e7e2d8"/><rect x="150" y="215" width="560" height="64" rx="32" fill="#fff" stroke="#11161c" stroke-opacity=".13"/><circle cx="190" cy="247" r="15" fill="none" stroke="#367df9" stroke-width="5"/><path d="M201 258l14 14" stroke="#367df9" stroke-width="5" stroke-linecap="round"/><rect x="150" y="332" width="380" height="18" rx="9" fill="#11161c" opacity=".82"/><rect x="150" y="372" width="520" height="12" rx="6" fill="#626b75" opacity=".34"/><rect x="150" y="405" width="460" height="12" rx="6" fill="#626b75" opacity=".26"/><rect x="150" y="470" width="290" height="18" rx="9" fill="#11161c" opacity=".65"/><rect x="925" y="250" width="190" height="190" rx="95" fill="#161e28" stroke="#69a3ff" stroke-opacity=".4"/><circle cx="1000" cy="325" r="42" fill="none" stroke="#f3f5f7" stroke-width="11"/><path d="M1030 355l46 46" stroke="#69a3ff" stroke-width="14" stroke-linecap="round"/><text x="92" y="650" fill="#98a2ae" font-family="Arial" font-size="24" letter-spacing="5">RASTREAMENTO • INDEXAÇÃO • CONTEÚDO</text></svg>